<svg width="91" height="21" viewBox="0 0 91 21" fill="none" xmlns="http://www.w3.org/2000/svg">
<mask id="path-1-inside-1_199_534" fill="white">
<path d="M12.021 6.15534C11.9393 5.35059 11.5886 4.72542 10.969 4.27981C10.3494 3.8342 9.50853 3.6114 8.44635 3.6114C7.72462 3.6114 7.11523 3.71116 6.61818 3.91069C6.12114 4.10356 5.73984 4.37292 5.4743 4.71876C5.21556 5.06461 5.0862 5.45701 5.0862 5.89596C5.07258 6.26176 5.15088 6.581 5.3211 6.85368C5.49813 7.12637 5.73984 7.36247 6.04624 7.562C6.35264 7.75487 6.7067 7.92447 7.10842 8.07078C7.51014 8.21045 7.9391 8.33017 8.39529 8.42993L10.2745 8.86888C11.1869 9.06841 12.0244 9.33444 12.787 9.66698C13.5496 9.99952 14.21 10.4086 14.7684 10.8941C15.3267 11.3796 15.759 11.9515 16.0654 12.61C16.3786 13.2684 16.5386 14.0233 16.5455 14.8746C16.5386 16.1249 16.2118 17.209 15.565 18.1268C14.925 19.038 13.999 19.7463 12.787 20.2518C11.5818 20.7506 10.1281 21 8.42593 21C6.73734 21 5.26663 20.7473 4.0138 20.2418C2.76779 19.7363 1.79413 18.9881 1.09282 17.9971C0.398317 16.9995 0.0340442 15.7658 0 14.296H4.27935C4.32701 14.981 4.52787 15.553 4.88193 16.0119C5.2428 16.4641 5.72282 16.8067 6.322 17.0394C6.92798 17.2656 7.61227 17.3786 8.37486 17.3786C9.12383 17.3786 9.77407 17.2722 10.3256 17.0594C10.8839 16.8466 11.3163 16.5506 11.6227 16.1715C11.9291 15.7924 12.0823 15.3568 12.0823 14.8646C12.0823 14.4057 11.9427 14.02 11.6635 13.7074C11.3912 13.3948 10.9895 13.1287 10.4584 12.9093C9.93408 12.6898 9.29065 12.4903 8.52806 12.3107L6.25051 11.752C4.48702 11.333 3.09461 10.6779 2.07329 9.7867C1.05196 8.89549 0.544706 7.69501 0.551515 6.18527C0.544706 4.94822 0.881743 3.86746 1.56263 2.94299C2.25032 2.01853 3.19334 1.29691 4.3917 0.778148C5.59005 0.259383 6.95181 0 8.47699 0C10.0294 0 11.3844 0.259383 12.5419 0.778148C13.7062 1.29691 14.6117 2.01853 15.2586 2.94299C15.9054 3.86746 16.2391 4.93824 16.2595 6.15534H12.021Z"/>
<path d="M21.8099 0V21H18.0496V0H21.8099Z"/>
<path d="M42.1157 10.5C42.1157 12.7291 41.7007 14.6255 40.8708 16.1892C40.0473 17.7529 38.9233 18.9472 37.4986 19.7723C36.0805 20.5908 34.4859 21 32.7149 21C30.9308 21 29.3297 20.5875 27.9115 19.7624C26.4934 18.9373 25.3726 17.7429 24.5492 16.1792C23.7258 14.6155 23.3141 12.7224 23.3141 10.5C23.3141 8.27091 23.7258 6.37453 24.5492 4.81084C25.3726 3.24715 26.4934 2.05608 27.9115 1.23764C29.3297 0.412548 30.9308 0 32.7149 0C34.4859 0 36.0805 0.412548 37.4986 1.23764C38.9233 2.05608 40.0473 3.24715 40.8708 4.81084C41.7007 6.37453 42.1157 8.27091 42.1157 10.5ZM37.8123 10.5C37.8123 9.05609 37.5999 7.8384 37.1751 6.84696C36.7569 5.85551 36.1654 5.10361 35.4008 4.59126C34.6362 4.0789 33.7409 3.82272 32.7149 3.82272C31.6889 3.82272 30.7935 4.0789 30.0289 4.59126C29.2643 5.10361 28.6696 5.85551 28.2448 6.84696C27.8266 7.8384 27.6175 9.05609 27.6175 10.5C27.6175 11.9439 27.8266 13.1616 28.2448 14.153C28.6696 15.1445 29.2643 15.8964 30.0289 16.4087C30.7935 16.9211 31.6889 17.1773 32.7149 17.1773C33.7409 17.1773 34.6362 16.9211 35.4008 16.4087C36.1654 15.8964 36.7569 15.1445 37.1751 14.153C37.5999 13.1616 37.8123 11.9439 37.8123 10.5Z"/>
<path d="M43.6198 21V0H51.8955C53.4864 0 54.8418 0.304199 55.9616 0.912598C57.0814 1.51416 57.9349 2.35156 58.5222 3.4248C59.1162 4.49121 59.4132 5.72168 59.4132 7.11621C59.4132 8.51074 59.1128 9.74121 58.5119 10.8076C57.911 11.874 57.0405 12.7046 55.9002 13.2993C54.7667 13.894 53.3943 14.1914 51.7828 14.1914H48.0547V10.6333H51.0659C51.9194 10.6333 52.6227 10.4863 53.1758 10.1924C53.7357 9.8916 54.1522 9.47803 54.4253 8.95166C54.7053 8.41846 54.8452 7.80664 54.8452 7.11621C54.8452 6.41894 54.7053 5.81055 54.4253 5.29102C54.1522 4.76465 53.7357 4.35791 53.1758 4.0708C52.6159 3.77686 51.9057 3.62988 51.0454 3.62988H48.0547V21H43.6198Z"/>
<path d="M65.5206 21H60.9174L67.9313 0H73.4671L80.4711 21H75.8679L70.7785 4.79883H70.6198L65.5206 21ZM68.1186 12.7456H73.2749L74.3636 16.2114H67.0277L68.1186 12.7456Z"/>
<path d="M81.9752 18C81.9752 16.7574 82.9853 15.75 84.2314 15.75H88.7438C89.9899 15.75 91 16.7574 91 18V18.75C91 19.9926 89.9899 21 88.7438 21H84.2314C82.9853 21 81.9752 19.9926 81.9752 18.75V18Z"/>
</mask>
<path d="M12.021 6.15534C11.9393 5.35059 11.5886 4.72542 10.969 4.27981C10.3494 3.8342 9.50853 3.6114 8.44635 3.6114C7.72462 3.6114 7.11523 3.71116 6.61818 3.91069C6.12114 4.10356 5.73984 4.37292 5.4743 4.71876C5.21556 5.06461 5.0862 5.45701 5.0862 5.89596C5.07258 6.26176 5.15088 6.581 5.3211 6.85368C5.49813 7.12637 5.73984 7.36247 6.04624 7.562C6.35264 7.75487 6.7067 7.92447 7.10842 8.07078C7.51014 8.21045 7.9391 8.33017 8.39529 8.42993L10.2745 8.86888C11.1869 9.06841 12.0244 9.33444 12.787 9.66698C13.5496 9.99952 14.21 10.4086 14.7684 10.8941C15.3267 11.3796 15.759 11.9515 16.0654 12.61C16.3786 13.2684 16.5386 14.0233 16.5455 14.8746C16.5386 16.1249 16.2118 17.209 15.565 18.1268C14.925 19.038 13.999 19.7463 12.787 20.2518C11.5818 20.7506 10.1281 21 8.42593 21C6.73734 21 5.26663 20.7473 4.0138 20.2418C2.76779 19.7363 1.79413 18.9881 1.09282 17.9971C0.398317 16.9995 0.0340442 15.7658 0 14.296H4.27935C4.32701 14.981 4.52787 15.553 4.88193 16.0119C5.2428 16.4641 5.72282 16.8067 6.322 17.0394C6.92798 17.2656 7.61227 17.3786 8.37486 17.3786C9.12383 17.3786 9.77407 17.2722 10.3256 17.0594C10.8839 16.8466 11.3163 16.5506 11.6227 16.1715C11.9291 15.7924 12.0823 15.3568 12.0823 14.8646C12.0823 14.4057 11.9427 14.02 11.6635 13.7074C11.3912 13.3948 10.9895 13.1287 10.4584 12.9093C9.93408 12.6898 9.29065 12.4903 8.52806 12.3107L6.25051 11.752C4.48702 11.333 3.09461 10.6779 2.07329 9.7867C1.05196 8.89549 0.544706 7.69501 0.551515 6.18527C0.544706 4.94822 0.881743 3.86746 1.56263 2.94299C2.25032 2.01853 3.19334 1.29691 4.3917 0.778148C5.59005 0.259383 6.95181 0 8.47699 0C10.0294 0 11.3844 0.259383 12.5419 0.778148C13.7062 1.29691 14.6117 2.01853 15.2586 2.94299C15.9054 3.86746 16.2391 4.93824 16.2595 6.15534H12.021Z" fill="#0B0D17"/>
<path d="M21.8099 0V21H18.0496V0H21.8099Z" fill="#0B0D17"/>
<path d="M42.1157 10.5C42.1157 12.7291 41.7007 14.6255 40.8708 16.1892C40.0473 17.7529 38.9233 18.9472 37.4986 19.7723C36.0805 20.5908 34.4859 21 32.7149 21C30.9308 21 29.3297 20.5875 27.9115 19.7624C26.4934 18.9373 25.3726 17.7429 24.5492 16.1792C23.7258 14.6155 23.3141 12.7224 23.3141 10.5C23.3141 8.27091 23.7258 6.37453 24.5492 4.81084C25.3726 3.24715 26.4934 2.05608 27.9115 1.23764C29.3297 0.412548 30.9308 0 32.7149 0C34.4859 0 36.0805 0.412548 37.4986 1.23764C38.9233 2.05608 40.0473 3.24715 40.8708 4.81084C41.7007 6.37453 42.1157 8.27091 42.1157 10.5ZM37.8123 10.5C37.8123 9.05609 37.5999 7.8384 37.1751 6.84696C36.7569 5.85551 36.1654 5.10361 35.4008 4.59126C34.6362 4.0789 33.7409 3.82272 32.7149 3.82272C31.6889 3.82272 30.7935 4.0789 30.0289 4.59126C29.2643 5.10361 28.6696 5.85551 28.2448 6.84696C27.8266 7.8384 27.6175 9.05609 27.6175 10.5C27.6175 11.9439 27.8266 13.1616 28.2448 14.153C28.6696 15.1445 29.2643 15.8964 30.0289 16.4087C30.7935 16.9211 31.6889 17.1773 32.7149 17.1773C33.7409 17.1773 34.6362 16.9211 35.4008 16.4087C36.1654 15.8964 36.7569 15.1445 37.1751 14.153C37.5999 13.1616 37.8123 11.9439 37.8123 10.5Z" fill="#0B0D17"/>
<path d="M43.6198 21V0H51.8955C53.4864 0 54.8418 0.304199 55.9616 0.912598C57.0814 1.51416 57.9349 2.35156 58.5222 3.4248C59.1162 4.49121 59.4132 5.72168 59.4132 7.11621C59.4132 8.51074 59.1128 9.74121 58.5119 10.8076C57.911 11.874 57.0405 12.7046 55.9002 13.2993C54.7667 13.894 53.3943 14.1914 51.7828 14.1914H48.0547V10.6333H51.0659C51.9194 10.6333 52.6227 10.4863 53.1758 10.1924C53.7357 9.8916 54.1522 9.47803 54.4253 8.95166C54.7053 8.41846 54.8452 7.80664 54.8452 7.11621C54.8452 6.41894 54.7053 5.81055 54.4253 5.29102C54.1522 4.76465 53.7357 4.35791 53.1758 4.0708C52.6159 3.77686 51.9057 3.62988 51.0454 3.62988H48.0547V21H43.6198Z" fill="#0B0D17"/>
<path d="M65.5206 21H60.9174L67.9313 0H73.4671L80.4711 21H75.8679L70.7785 4.79883H70.6198L65.5206 21ZM68.1186 12.7456H73.2749L74.3636 16.2114H67.0277L68.1186 12.7456Z" fill="#0B0D17"/>
<path d="M12.021 6.15534C11.9393 5.35059 11.5886 4.72542 10.969 4.27981C10.3494 3.8342 9.50853 3.6114 8.44635 3.6114C7.72462 3.6114 7.11523 3.71116 6.61818 3.91069C6.12114 4.10356 5.73984 4.37292 5.4743 4.71876C5.21556 5.06461 5.0862 5.45701 5.0862 5.89596C5.07258 6.26176 5.15088 6.581 5.3211 6.85368C5.49813 7.12637 5.73984 7.36247 6.04624 7.562C6.35264 7.75487 6.7067 7.92447 7.10842 8.07078C7.51014 8.21045 7.9391 8.33017 8.39529 8.42993L10.2745 8.86888C11.1869 9.06841 12.0244 9.33444 12.787 9.66698C13.5496 9.99952 14.21 10.4086 14.7684 10.8941C15.3267 11.3796 15.759 11.9515 16.0654 12.61C16.3786 13.2684 16.5386 14.0233 16.5455 14.8746C16.5386 16.1249 16.2118 17.209 15.565 18.1268C14.925 19.038 13.999 19.7463 12.787 20.2518C11.5818 20.7506 10.1281 21 8.42593 21C6.73734 21 5.26663 20.7473 4.0138 20.2418C2.76779 19.7363 1.79413 18.9881 1.09282 17.9971C0.398317 16.9995 0.0340442 15.7658 0 14.296H4.27935C4.32701 14.981 4.52787 15.553 4.88193 16.0119C5.2428 16.4641 5.72282 16.8067 6.322 17.0394C6.92798 17.2656 7.61227 17.3786 8.37486 17.3786C9.12383 17.3786 9.77407 17.2722 10.3256 17.0594C10.8839 16.8466 11.3163 16.5506 11.6227 16.1715C11.9291 15.7924 12.0823 15.3568 12.0823 14.8646C12.0823 14.4057 11.9427 14.02 11.6635 13.7074C11.3912 13.3948 10.9895 13.1287 10.4584 12.9093C9.93408 12.6898 9.29065 12.4903 8.52806 12.3107L6.25051 11.752C4.48702 11.333 3.09461 10.6779 2.07329 9.7867C1.05196 8.89549 0.544706 7.69501 0.551515 6.18527C0.544706 4.94822 0.881743 3.86746 1.56263 2.94299C2.25032 2.01853 3.19334 1.29691 4.3917 0.778148C5.59005 0.259383 6.95181 0 8.47699 0C10.0294 0 11.3844 0.259383 12.5419 0.778148C13.7062 1.29691 14.6117 2.01853 15.2586 2.94299C15.9054 3.86746 16.2391 4.93824 16.2595 6.15534H12.021Z" stroke="#0B0D17" stroke-width="4" mask="url(#path-1-inside-1_199_534)"/>
<path d="M21.8099 0V21H18.0496V0H21.8099Z" stroke="#0B0D17" stroke-width="4" mask="url(#path-1-inside-1_199_534)"/>
<path d="M42.1157 10.5C42.1157 12.7291 41.7007 14.6255 40.8708 16.1892C40.0473 17.7529 38.9233 18.9472 37.4986 19.7723C36.0805 20.5908 34.4859 21 32.7149 21C30.9308 21 29.3297 20.5875 27.9115 19.7624C26.4934 18.9373 25.3726 17.7429 24.5492 16.1792C23.7258 14.6155 23.3141 12.7224 23.3141 10.5C23.3141 8.27091 23.7258 6.37453 24.5492 4.81084C25.3726 3.24715 26.4934 2.05608 27.9115 1.23764C29.3297 0.412548 30.9308 0 32.7149 0C34.4859 0 36.0805 0.412548 37.4986 1.23764C38.9233 2.05608 40.0473 3.24715 40.8708 4.81084C41.7007 6.37453 42.1157 8.27091 42.1157 10.5ZM37.8123 10.5C37.8123 9.05609 37.5999 7.8384 37.1751 6.84696C36.7569 5.85551 36.1654 5.10361 35.4008 4.59126C34.6362 4.0789 33.7409 3.82272 32.7149 3.82272C31.6889 3.82272 30.7935 4.0789 30.0289 4.59126C29.2643 5.10361 28.6696 5.85551 28.2448 6.84696C27.8266 7.8384 27.6175 9.05609 27.6175 10.5C27.6175 11.9439 27.8266 13.1616 28.2448 14.153C28.6696 15.1445 29.2643 15.8964 30.0289 16.4087C30.7935 16.9211 31.6889 17.1773 32.7149 17.1773C33.7409 17.1773 34.6362 16.9211 35.4008 16.4087C36.1654 15.8964 36.7569 15.1445 37.1751 14.153C37.5999 13.1616 37.8123 11.9439 37.8123 10.5Z" stroke="#0B0D17" stroke-width="4" mask="url(#path-1-inside-1_199_534)"/>
<path d="M43.6198 21V0H51.8955C53.4864 0 54.8418 0.304199 55.9616 0.912598C57.0814 1.51416 57.9349 2.35156 58.5222 3.4248C59.1162 4.49121 59.4132 5.72168 59.4132 7.11621C59.4132 8.51074 59.1128 9.74121 58.5119 10.8076C57.911 11.874 57.0405 12.7046 55.9002 13.2993C54.7667 13.894 53.3943 14.1914 51.7828 14.1914H48.0547V10.6333H51.0659C51.9194 10.6333 52.6227 10.4863 53.1758 10.1924C53.7357 9.8916 54.1522 9.47803 54.4253 8.95166C54.7053 8.41846 54.8452 7.80664 54.8452 7.11621C54.8452 6.41894 54.7053 5.81055 54.4253 5.29102C54.1522 4.76465 53.7357 4.35791 53.1758 4.0708C52.6159 3.77686 51.9057 3.62988 51.0454 3.62988H48.0547V21H43.6198Z" stroke="#0B0D17" stroke-width="4" mask="url(#path-1-inside-1_199_534)"/>
<path d="M65.5206 21H60.9174L67.9313 0H73.4671L80.4711 21H75.8679L70.7785 4.79883H70.6198L65.5206 21ZM68.1186 12.7456H73.2749L74.3636 16.2114H67.0277L68.1186 12.7456Z" stroke="#0B0D17" stroke-width="4" mask="url(#path-1-inside-1_199_534)"/>
<path d="M81.9752 18C81.9752 16.7574 82.9853 15.75 84.2314 15.75H88.7438C89.9899 15.75 91 16.7574 91 18V18.75C91 19.9926 89.9899 21 88.7438 21H84.2314C82.9853 21 81.9752 19.9926 81.9752 18.75V18Z" stroke="#0B0D17" stroke-width="4" mask="url(#path-1-inside-1_199_534)"/>
</svg>
